<svg height="2878" width="720" xmlns="http://www.w3.org/2000/svg">
<rect height="2878" fill="#555" width="720"></rect>
<text fill="#7f7" font-family="Courier New" font-size="12" xml:space="preserve">
<tspan x="10" y="26">86 megabytes installed</tspan>
<tspan x="10" y="42"></tspan>
<tspan x="10" y="58">node_modules</tspan>
<tspan x="10" y="74">└─┬ gulp-uncss@1.0.6 </tspan>
<tspan x="10" y="90">  ├─┬ gulp-util@3.0.8 </tspan>
<tspan x="10" y="106">  │ ├── array-differ@1.0.0 </tspan>
<tspan x="10" y="122">  │ ├── array-uniq@1.0.3 </tspan>
<tspan x="10" y="138">  │ ├── beeper@1.1.1 </tspan>
<tspan x="10" y="154">  │ ├─┬ chalk@1.1.3 </tspan>
<tspan x="10" y="170">  │ │ ├── ansi-styles@2.2.1 </tspan>
<tspan x="10" y="186">  │ │ ├── escape-string-regexp@1.0.5 </tspan>
<tspan x="10" y="202">  │ │ ├─┬ has-ansi@2.0.0 </tspan>
<tspan x="10" y="218">  │ │ │ └── ansi-regex@2.1.1 </tspan>
<tspan x="10" y="234">  │ │ ├── strip-ansi@3.0.1 </tspan>
<tspan x="10" y="250">  │ │ └── supports-color@2.0.0 </tspan>
<tspan x="10" y="266">  │ ├── dateformat@2.0.0 </tspan>
<tspan x="10" y="282">  │ ├─┬ fancy-log@1.3.0 </tspan>
<tspan x="10" y="298">  │ │ └── time-stamp@1.0.1 </tspan>
<tspan x="10" y="314">  │ ├─┬ gulplog@1.0.0 </tspan>
<tspan x="10" y="330">  │ │ └── glogg@1.0.0 </tspan>
<tspan x="10" y="346">  │ ├─┬ has-gulplog@0.1.0 </tspan>
<tspan x="10" y="362">  │ │ └── sparkles@1.0.0 </tspan>
<tspan x="10" y="378">  │ ├── lodash._reescape@3.0.0 </tspan>
<tspan x="10" y="394">  │ ├── lodash._reevaluate@3.0.0 </tspan>
<tspan x="10" y="410">  │ ├── lodash._reinterpolate@3.0.0 </tspan>
<tspan x="10" y="426">  │ ├─┬ lodash.template@3.6.2 </tspan>
<tspan x="10" y="442">  │ │ ├── lodash._basecopy@3.0.1 </tspan>
<tspan x="10" y="458">  │ │ ├── lodash._basetostring@3.0.1 </tspan>
<tspan x="10" y="474">  │ │ ├── lodash._basevalues@3.0.0 </tspan>
<tspan x="10" y="490">  │ │ ├── lodash._isiterateecall@3.0.9 </tspan>
<tspan x="10" y="506">  │ │ ├─┬ lodash.escape@3.2.0 </tspan>
<tspan x="10" y="522">  │ │ │ └── lodash._root@3.0.1 </tspan>
<tspan x="10" y="538">  │ │ ├─┬ lodash.keys@3.1.2 </tspan>
<tspan x="10" y="554">  │ │ │ ├── lodash._getnative@3.9.1 </tspan>
<tspan x="10" y="570">  │ │ │ ├── lodash.isarguments@3.1.0 </tspan>
<tspan x="10" y="586">  │ │ │ └── lodash.isarray@3.0.4 </tspan>
<tspan x="10" y="602">  │ │ ├── lodash.restparam@3.6.1 </tspan>
<tspan x="10" y="618">  │ │ └── lodash.templatesettings@3.1.1 </tspan>
<tspan x="10" y="634">  │ ├── minimist@1.2.0 </tspan>
<tspan x="10" y="650">  │ ├─┬ multipipe@0.1.2 </tspan>
<tspan x="10" y="666">  │ │ └─┬ duplexer2@0.0.2 </tspan>
<tspan x="10" y="682">  │ │   └─┬ readable-stream@1.1.14 </tspan>
<tspan x="10" y="698">  │ │     ├── isarray@0.0.1 </tspan>
<tspan x="10" y="714">  │ │     └── string_decoder@0.10.31 </tspan>
<tspan x="10" y="730">  │ ├── object-assign@3.0.0 </tspan>
<tspan x="10" y="746">  │ ├── replace-ext@0.0.1 </tspan>
<tspan x="10" y="762">  │ ├─┬ through2@2.0.3 </tspan>
<tspan x="10" y="778">  │ │ ├─┬ readable-stream@2.2.9 </tspan>
<tspan x="10" y="794">  │ │ │ ├── buffer-shims@1.0.0 </tspan>
<tspan x="10" y="810">  │ │ │ ├── core-util-is@1.0.2 </tspan>
<tspan x="10" y="826">  │ │ │ ├── isarray@1.0.0 </tspan>
<tspan x="10" y="842">  │ │ │ ├── process-nextick-args@1.0.7 </tspan>
<tspan x="10" y="858">  │ │ │ ├── string_decoder@1.0.0 </tspan>
<tspan x="10" y="874">  │ │ │ └── util-deprecate@1.0.2 </tspan>
<tspan x="10" y="890">  │ │ └── xtend@4.0.1 </tspan>
<tspan x="10" y="906">  │ └─┬ vinyl@0.5.3 </tspan>
<tspan x="10" y="922">  │   ├── clone@1.0.2 </tspan>
<tspan x="10" y="938">  │   └── clone-stats@0.0.1 </tspan>
<tspan x="10" y="954">  ├── object-assign@4.1.1 </tspan>
<tspan x="10" y="970">  └─┬ uncss@0.14.1 </tspan>
<tspan x="10" y="986">    ├── async@1.5.2 </tspan>
<tspan x="10" y="1002">    ├── bluebird@3.1.5 </tspan>
<tspan x="10" y="1018">    ├─┬ commander@2.9.0 </tspan>
<tspan x="10" y="1034">    │ └── graceful-readlink@1.0.1 </tspan>
<tspan x="10" y="1050">    ├─┬ glob@6.0.4 </tspan>
<tspan x="10" y="1066">    │ ├─┬ inflight@1.0.6 </tspan>
<tspan x="10" y="1082">    │ │ └── wrappy@1.0.2 </tspan>
<tspan x="10" y="1098">    │ ├── inherits@2.0.3 </tspan>
<tspan x="10" y="1114">    │ ├─┬ minimatch@3.0.3 </tspan>
<tspan x="10" y="1130">    │ │ └─┬ brace-expansion@1.1.7 </tspan>
<tspan x="10" y="1146">    │ │   ├── balanced-match@0.4.2 </tspan>
<tspan x="10" y="1162">    │ │   └── concat-map@0.0.1 </tspan>
<tspan x="10" y="1178">    │ ├── once@1.4.0 </tspan>
<tspan x="10" y="1194">    │ └── path-is-absolute@1.0.1 </tspan>
<tspan x="10" y="1210">    ├── is-absolute-url@2.0.0 </tspan>
<tspan x="10" y="1226">    ├─┬ is-html@1.0.0 </tspan>
<tspan x="10" y="1242">    │ └── html-tags@1.1.1 </tspan>
<tspan x="10" y="1258">    ├── lodash@4.0.1 </tspan>
<tspan x="10" y="1274">    ├─┬ phridge@2.0.0 </tspan>
<tspan x="10" y="1290">    │ ├── fork-stream@0.0.4 </tspan>
<tspan x="10" y="1306">    │ ├── linerstream@0.1.4 </tspan>
<tspan x="10" y="1322">    │ ├─┬ phantomjs-prebuilt@2.1.14 </tspan>
<tspan x="10" y="1338">    │ │ ├── es6-promise@4.0.5 </tspan>
<tspan x="10" y="1354">    │ │ ├─┬ extract-zip@1.5.0 </tspan>
<tspan x="10" y="1370">    │ │ │ ├─┬ concat-stream@1.5.0 </tspan>
<tspan x="10" y="1386">    │ │ │ │ ├─┬ readable-stream@2.0.6 </tspan>
<tspan x="10" y="1402">    │ │ │ │ │ └── isarray@1.0.0 </tspan>
<tspan x="10" y="1418">    │ │ │ │ └── typedarray@0.0.6 </tspan>
<tspan x="10" y="1434">    │ │ │ ├── debug@0.7.4 </tspan>
<tspan x="10" y="1450">    │ │ │ ├─┬ mkdirp@0.5.0 </tspan>
<tspan x="10" y="1466">    │ │ │ │ └── minimist@0.0.8 </tspan>
<tspan x="10" y="1482">    │ │ │ └─┬ yauzl@2.4.1 </tspan>
<tspan x="10" y="1498">    │ │ │   └─┬ fd-slicer@1.0.1 </tspan>
<tspan x="10" y="1514">    │ │ │     └── pend@1.2.0 </tspan>
<tspan x="10" y="1530">    │ │ ├─┬ fs-extra@1.0.0 </tspan>
<tspan x="10" y="1546">    │ │ │ ├── graceful-fs@4.1.11 </tspan>
<tspan x="10" y="1562">    │ │ │ ├── jsonfile@2.4.0 </tspan>
<tspan x="10" y="1578">    │ │ │ └── klaw@1.3.1 </tspan>
<tspan x="10" y="1594">    │ │ ├─┬ hasha@2.2.0 </tspan>
<tspan x="10" y="1610">    │ │ │ └── is-stream@1.1.0 </tspan>
<tspan x="10" y="1626">    │ │ ├── kew@0.7.0 </tspan>
<tspan x="10" y="1642">    │ │ ├── progress@1.1.8 </tspan>
<tspan x="10" y="1658">    │ │ ├─┬ request@2.79.0 </tspan>
<tspan x="10" y="1674">    │ │ │ ├─┬ form-data@2.1.4 </tspan>
<tspan x="10" y="1690">    │ │ │ │ └── asynckit@0.4.0 </tspan>
<tspan x="10" y="1706">    │ │ │ ├── qs@6.3.2 </tspan>
<tspan x="10" y="1722">    │ │ │ ├─┬ tough-cookie@2.3.2 </tspan>
<tspan x="10" y="1738">    │ │ │ │ └── punycode@1.4.1 </tspan>
<tspan x="10" y="1754">    │ │ │ └── uuid@3.0.1 </tspan>
<tspan x="10" y="1770">    │ │ ├─┬ request-progress@2.0.1 </tspan>
<tspan x="10" y="1786">    │ │ │ └── throttleit@1.0.0 </tspan>
<tspan x="10" y="1802">    │ │ └─┬ which@1.2.14 </tspan>
<tspan x="10" y="1818">    │ │   └── isexe@2.0.0 </tspan>
<tspan x="10" y="1834">    │ └─┬ temp@0.8.3 </tspan>
<tspan x="10" y="1850">    │   ├── os-tmpdir@1.0.2 </tspan>
<tspan x="10" y="1866">    │   └── rimraf@2.2.8 </tspan>
<tspan x="10" y="1882">    ├─┬ postcss@5.0.21 </tspan>
<tspan x="10" y="1898">    │ ├── js-base64@2.1.9 </tspan>
<tspan x="10" y="1914">    │ ├── source-map@0.5.6 </tspan>
<tspan x="10" y="1930">    │ └─┬ supports-color@3.2.3 </tspan>
<tspan x="10" y="1946">    │   └── has-flag@1.0.0 </tspan>
<tspan x="10" y="1962">    └─┬ request@2.69.0 </tspan>
<tspan x="10" y="1978">      ├── aws-sign2@0.6.0 </tspan>
<tspan x="10" y="1994">      ├── aws4@1.6.0 </tspan>
<tspan x="10" y="2010">      ├─┬ bl@1.0.3 </tspan>
<tspan x="10" y="2026">      │ └─┬ readable-stream@2.0.6 </tspan>
<tspan x="10" y="2042">      │   └── isarray@1.0.0 </tspan>
<tspan x="10" y="2058">      ├── caseless@0.11.0 </tspan>
<tspan x="10" y="2074">      ├─┬ combined-stream@1.0.5 </tspan>
<tspan x="10" y="2090">      │ └── delayed-stream@1.0.0 </tspan>
<tspan x="10" y="2106">      ├── extend@3.0.0 </tspan>
<tspan x="10" y="2122">      ├── forever-agent@0.6.1 </tspan>
<tspan x="10" y="2138">      ├─┬ form-data@1.0.1 </tspan>
<tspan x="10" y="2154">      │ └─┬ async@2.3.0 </tspan>
<tspan x="10" y="2170">      │   └── lodash@4.17.4 </tspan>
<tspan x="10" y="2186">      ├─┬ har-validator@2.0.6 </tspan>
<tspan x="10" y="2202">      │ ├─┬ is-my-json-valid@2.16.0 </tspan>
<tspan x="10" y="2218">      │ │ ├── generate-function@2.0.0 </tspan>
<tspan x="10" y="2234">      │ │ ├─┬ generate-object-property@1.2.0 </tspan>
<tspan x="10" y="2250">      │ │ │ └── is-property@1.0.2 </tspan>
<tspan x="10" y="2266">      │ │ └── jsonpointer@4.0.1 </tspan>
<tspan x="10" y="2282">      │ └─┬ pinkie-promise@2.0.1 </tspan>
<tspan x="10" y="2298">      │   └── pinkie@2.0.4 </tspan>
<tspan x="10" y="2314">      ├─┬ hawk@3.1.3 </tspan>
<tspan x="10" y="2330">      │ ├── boom@2.10.1 </tspan>
<tspan x="10" y="2346">      │ ├── cryptiles@2.0.5 </tspan>
<tspan x="10" y="2362">      │ ├── hoek@2.16.3 </tspan>
<tspan x="10" y="2378">      │ └── sntp@1.0.9 </tspan>
<tspan x="10" y="2394">      ├─┬ http-signature@1.1.1 </tspan>
<tspan x="10" y="2410">      │ ├── assert-plus@0.2.0 </tspan>
<tspan x="10" y="2426">      │ ├─┬ jsprim@1.4.0 </tspan>
<tspan x="10" y="2442">      │ │ ├── assert-plus@1.0.0 </tspan>
<tspan x="10" y="2458">      │ │ ├── extsprintf@1.0.2 </tspan>
<tspan x="10" y="2474">      │ │ ├── json-schema@0.2.3 </tspan>
<tspan x="10" y="2490">      │ │ └── verror@1.3.6 </tspan>
<tspan x="10" y="2506">      │ └─┬ sshpk@1.11.0 </tspan>
<tspan x="10" y="2522">      │   ├── asn1@0.2.3 </tspan>
<tspan x="10" y="2538">      │   ├── assert-plus@1.0.0 </tspan>
<tspan x="10" y="2554">      │   ├── bcrypt-pbkdf@1.0.1 </tspan>
<tspan x="10" y="2570">      │   ├─┬ dashdash@1.14.1 </tspan>
<tspan x="10" y="2586">      │   │ └── assert-plus@1.0.0 </tspan>
<tspan x="10" y="2602">      │   ├── ecc-jsbn@0.1.1 </tspan>
<tspan x="10" y="2618">      │   ├─┬ getpass@0.1.6 </tspan>
<tspan x="10" y="2634">      │   │ └── assert-plus@1.0.0 </tspan>
<tspan x="10" y="2650">      │   ├── jodid25519@1.0.2 </tspan>
<tspan x="10" y="2666">      │   ├── jsbn@0.1.1 </tspan>
<tspan x="10" y="2682">      │   └── tweetnacl@0.14.5 </tspan>
<tspan x="10" y="2698">      ├── is-typedarray@1.0.0 </tspan>
<tspan x="10" y="2714">      ├── isstream@0.1.2 </tspan>
<tspan x="10" y="2730">      ├── json-stringify-safe@5.0.1 </tspan>
<tspan x="10" y="2746">      ├─┬ mime-types@2.1.15 </tspan>
<tspan x="10" y="2762">      │ └── mime-db@1.27.0 </tspan>
<tspan x="10" y="2778">      ├── node-uuid@1.4.8 </tspan>
<tspan x="10" y="2794">      ├── oauth-sign@0.8.2 </tspan>
<tspan x="10" y="2810">      ├── qs@6.0.4 </tspan>
<tspan x="10" y="2826">      ├── stringstream@0.0.5 </tspan>
<tspan x="10" y="2842">      ├── tough-cookie@2.2.2 </tspan>
<tspan x="10" y="2858">      └── tunnel-agent@0.4.3</tspan>
</text>
</svg>
